<svg width="45" height="60" viewBox="0 0 45 60" fill="none" xmlns="http://www.w3.org/2000/svg">
<path d="M8.13902 16.0843C8.13902 12.4699 6.87295 9.21687 4.70255 6.50602H28.577C33.8222 6.50602 37.9821 10.8434 37.9821 15.9036C37.9821 20.9639 33.6413 25.4819 28.577 25.4819H4.70255C6.87295 22.9518 8.13902 19.5181 8.13902 16.0843ZM4.70255 53.494H28.577C33.8222 53.494 37.9821 49.1566 37.9821 44.0964C37.9821 39.0361 33.6413 34.5181 28.577 34.5181H4.70255C6.87295 37.0482 8.13902 40.4819 8.13902 44.0964C8.13902 47.5301 6.87295 50.9639 4.70255 53.494ZM35.8117 30C40.876 27.2892 44.3124 22.0482 44.3124 15.9036C44.3124 7.22892 37.2586 0 28.3961 0H0V3.61446H28.577C35.2691 3.61446 40.876 9.03615 40.876 15.9036C40.876 22.7711 35.45 28.1928 28.577 28.1928H0V31.8072H28.577C35.2691 31.8072 40.876 37.2289 40.876 44.0964C40.876 50.9639 35.45 56.3855 28.577 56.3855H0V60H28.577C37.2586 60 44.4933 52.9518 44.4933 44.0964C44.3124 37.9518 40.876 32.7108 35.8117 30Z" fill="#FF4370"/>
</svg>
